<svg width="144" height="36" viewBox="0 0 144 36" fill="none" xmlns="http://www.w3.org/2000/svg">
<rect x="8" y="8" width="20" height="20" rx="4" fill="#242424"/>
<path d="M14.7917 22.6666C13.907 22.6666 13.151 22.3603 12.5237 21.7478C11.8964 21.1353 11.583 20.3867 11.5834 19.502C11.5834 18.7437 11.8118 18.068 12.2688 17.4749C12.7257 16.8819 13.3237 16.5027 14.0625 16.3374C14.3056 15.443 14.7917 14.7187 15.5209 14.1645C16.25 13.6103 17.0764 13.3333 18 13.3333C19.1375 13.3333 20.1026 13.7295 20.8951 14.5221C21.6877 15.3146 22.0838 16.2795 22.0834 17.4166C22.7542 17.4944 23.3109 17.7837 23.7535 18.2846C24.196 18.7855 24.4171 19.3711 24.4167 20.0416C24.4167 20.7708 24.1614 21.3906 23.6508 21.9013C23.1402 22.4119 22.5205 22.667 21.7917 22.6666H14.7917ZM14.7917 21.4999H21.7917C22.2 21.4999 22.5452 21.3589 22.8271 21.077C23.1091 20.7951 23.25 20.4499 23.25 20.0416C23.25 19.6333 23.1091 19.2881 22.8271 19.0062C22.5452 18.7242 22.2 18.5833 21.7917 18.5833H20.9167V17.4166C20.9167 16.6096 20.6322 15.9217 20.0633 15.3528C19.4943 14.7838 18.8066 14.4995 18 14.4999C17.1931 14.4999 16.5052 14.7844 15.9362 15.3533C15.3673 15.9223 15.083 16.61 15.0834 17.4166H14.7917C14.2278 17.4166 13.7466 17.6159 13.348 18.0145C12.9493 18.4131 12.75 18.8944 12.75 19.4583C12.75 20.0221 12.9493 20.5034 13.348 20.902C13.7466 21.3006 14.2278 21.4999 14.7917 21.4999Z" fill="white"/>
<path d="M43.6364 12.3636H46.7955V19.8182C46.7955 20.7045 46.5833 21.4716 46.1591 22.1193C45.7386 22.7633 45.1515 23.2614 44.3977 23.6136C43.6439 23.9621 42.7689 24.1364 41.7727 24.1364C40.7689 24.1364 39.8902 23.9621 39.1364 23.6136C38.3826 23.2614 37.7955 22.7633 37.375 22.1193C36.9583 21.4716 36.75 20.7045 36.75 19.8182V12.3636H39.9091V19.5455C39.9091 19.9053 39.9886 20.2273 40.1477 20.5114C40.3068 20.7917 40.5265 21.0114 40.8068 21.1705C41.0909 21.3295 41.4129 21.4091 41.7727 21.4091C42.1364 21.4091 42.4583 21.3295 42.7386 21.1705C43.0189 21.0114 43.2386 20.7917 43.3977 20.5114C43.5568 20.2273 43.6364 19.9053 43.6364 19.5455V12.3636ZM48.2969 24V12.3636H53.3423C54.2287 12.3636 54.973 12.483 55.5753 12.7216C56.1813 12.9602 56.6378 13.2973 56.9446 13.733C57.2552 14.1686 57.4105 14.6818 57.4105 15.2727C57.4105 15.7008 57.3158 16.0909 57.1264 16.4432C56.9408 16.7955 56.6795 17.0909 56.3423 17.3295C56.0052 17.5644 55.6113 17.7273 55.1605 17.8182V17.9318C55.6605 17.9508 56.1151 18.0777 56.5241 18.3125C56.9332 18.5436 57.259 18.8636 57.5014 19.2727C57.7438 19.678 57.8651 20.1553 57.8651 20.7045C57.8651 21.3409 57.6984 21.9072 57.3651 22.4034C57.0355 22.8996 56.5658 23.2898 55.956 23.5739C55.3461 23.858 54.6188 24 53.7741 24H48.2969ZM51.456 21.4773H52.9332C53.4635 21.4773 53.8613 21.3788 54.1264 21.1818C54.3916 20.9811 54.5241 20.6856 54.5241 20.2955C54.5241 20.0227 54.4616 19.7917 54.3366 19.6023C54.2116 19.4129 54.0336 19.2689 53.8026 19.1705C53.5753 19.072 53.3007 19.0227 52.9787 19.0227H51.456V21.4773ZM51.456 17.0682H52.7514C53.0279 17.0682 53.2723 17.0246 53.4844 16.9375C53.6965 16.8504 53.8613 16.7254 53.9787 16.5625C54.0999 16.3958 54.1605 16.1932 54.1605 15.9545C54.1605 15.5947 54.0317 15.3201 53.7741 15.1307C53.5166 14.9375 53.1908 14.8409 52.7969 14.8409H51.456V17.0682ZM62.1435 12.3636V24H58.9844V12.3636H62.1435ZM74.5043 16.7273H71.2997C71.277 16.4621 71.2164 16.2216 71.1179 16.0057C71.0232 15.7898 70.8906 15.6042 70.7202 15.4489C70.5535 15.2898 70.3509 15.1686 70.1122 15.0852C69.8736 14.9981 69.6027 14.9545 69.2997 14.9545C68.7694 14.9545 68.3205 15.0833 67.9531 15.3409C67.5895 15.5985 67.313 15.9678 67.1236 16.4489C66.938 16.9299 66.8452 17.5076 66.8452 18.1818C66.8452 18.8939 66.9399 19.4905 67.1293 19.9716C67.3224 20.4489 67.6009 20.8087 67.9645 21.0511C68.3281 21.2898 68.7656 21.4091 69.277 21.4091C69.5687 21.4091 69.83 21.3731 70.0611 21.3011C70.2921 21.2254 70.4929 21.1174 70.6634 20.9773C70.8338 20.8371 70.9721 20.6686 71.0781 20.4716C71.188 20.2708 71.2618 20.0455 71.2997 19.7955L74.5043 19.8182C74.4664 20.3106 74.3281 20.8125 74.0895 21.3239C73.8509 21.8314 73.5118 22.3011 73.0724 22.733C72.6368 23.161 72.0971 23.5057 71.4531 23.767C70.8092 24.0284 70.0611 24.1591 69.2088 24.1591C68.1406 24.1591 67.1823 23.9299 66.3338 23.4716C65.4891 23.0133 64.8205 22.339 64.3281 21.4489C63.8395 20.5587 63.5952 19.4697 63.5952 18.1818C63.5952 16.8864 63.8452 15.7955 64.3452 14.9091C64.8452 14.0189 65.5194 13.3466 66.3679 12.892C67.2164 12.4337 68.1634 12.2045 69.2088 12.2045C69.9437 12.2045 70.6198 12.3049 71.2372 12.5057C71.8546 12.7064 72.3963 13 72.8622 13.3864C73.3281 13.7689 73.7031 14.2405 73.9872 14.8011C74.2713 15.3617 74.4437 16.0038 74.5043 16.7273ZM87.2102 18.1818C87.2102 19.4773 86.9583 20.5701 86.4545 21.4602C85.9508 22.3466 85.2708 23.0189 84.4148 23.4773C83.5587 23.9318 82.6042 24.1591 81.5511 24.1591C80.4905 24.1591 79.5322 23.9299 78.6761 23.4716C77.8239 23.0095 77.1458 22.3352 76.642 21.4489C76.142 20.5587 75.892 19.4697 75.892 18.1818C75.892 16.8864 76.142 15.7955 76.642 14.9091C77.1458 14.0189 77.8239 13.3466 78.6761 12.892C79.5322 12.4337 80.4905 12.2045 81.5511 12.2045C82.6042 12.2045 83.5587 12.4337 84.4148 12.892C85.2708 13.3466 85.9508 14.0189 86.4545 14.9091C86.9583 15.7955 87.2102 16.8864 87.2102 18.1818ZM83.9602 18.1818C83.9602 17.4848 83.8674 16.8977 83.6818 16.4205C83.5 15.9394 83.2292 15.5758 82.8693 15.3295C82.5133 15.0795 82.0739 14.9545 81.5511 14.9545C81.0284 14.9545 80.5871 15.0795 80.2273 15.3295C79.8712 15.5758 79.6004 15.9394 79.4148 16.4205C79.233 16.8977 79.142 17.4848 79.142 18.1818C79.142 18.8788 79.233 19.4678 79.4148 19.9489C79.6004 20.4261 79.8712 20.7898 80.2273 21.0398C80.5871 21.286 81.0284 21.4091 81.5511 21.4091C82.0739 21.4091 82.5133 21.286 82.8693 21.0398C83.2292 20.7898 83.5 20.4261 83.6818 19.9489C83.8674 19.4678 83.9602 18.8788 83.9602 18.1818ZM98.7401 12.3636V24H96.1037L91.8991 17.8864H91.831V24H88.6719V12.3636H91.3537L95.4901 18.4545H95.581V12.3636H98.7401ZM103.422 24V12.3636H106.581V21.4545H111.286V24H103.422ZM115.585 24H112.176L116.017 12.3636H120.335L124.176 24H120.767L118.222 15.5682H118.131L115.585 24ZM114.949 19.4091H121.358V21.7727H114.949V19.4091ZM125.297 24V12.3636H130.342C131.229 12.3636 131.973 12.483 132.575 12.7216C133.181 12.9602 133.638 13.2973 133.945 13.733C134.255 14.1686 134.411 14.6818 134.411 15.2727C134.411 15.7008 134.316 16.0909 134.126 16.4432C133.941 16.7955 133.679 17.0909 133.342 17.3295C133.005 17.5644 132.611 17.7273 132.161 17.8182V17.9318C132.661 17.9508 133.115 18.0777 133.524 18.3125C133.933 18.5436 134.259 18.8636 134.501 19.2727C134.744 19.678 134.865 20.1553 134.865 20.7045C134.865 21.3409 134.698 21.9072 134.365 22.4034C134.036 22.8996 133.566 23.2898 132.956 23.5739C132.346 23.858 131.619 24 130.774 24H125.297ZM128.456 21.4773H129.933C130.464 21.4773 130.861 21.3788 131.126 21.1818C131.392 20.9811 131.524 20.6856 131.524 20.2955C131.524 20.0227 131.462 19.7917 131.337 19.6023C131.212 19.4129 131.034 19.2689 130.803 19.1705C130.575 19.072 130.301 19.0227 129.979 19.0227H128.456V21.4773ZM128.456 17.0682H129.751C130.028 17.0682 130.272 17.0246 130.484 16.9375C130.696 16.8504 130.861 16.7254 130.979 16.5625C131.1 16.3958 131.161 16.1932 131.161 15.9545C131.161 15.5947 131.032 15.3201 130.774 15.1307C130.517 14.9375 130.191 14.8409 129.797 14.8409H128.456V17.0682Z" fill="#242424"/>
</svg>
